<svg id="AJK" xmlns="http://www.w3.org/2000/svg" viewBox="0 0 60 60"><defs><style>.cls-1{fill:#fdc209;stroke:#010101;stroke-miterlimit:10;}</style></defs><title>AK</title><path class="cls-1" d="M39.8,14.71l-4.35-2.5-1.62-1.42s-.33-5.32-4.24-1.73c-1,.32-3.72-.88-4.13-.33a26.62,26.62,0,0,0-1.3,4L22,14.05a5.12,5.12,0,0,0-3.69,4.46c-2.06-.11-5.65.11-3,11.3,1.52,1.19,2.06,5.75,2.06,5.75l.55,7.06L18,47.4s0,.55,5.22,1.2a48.64,48.64,0,0,1,5.87,3.58s3.8-2.39-.33-4.67a23.68,23.68,0,0,0-4.67-2.93s7.06-4-.22-8.26c-.22-1.19,9-8.47-.33-8.8,0-3.25.11-4.12.11-4.12l-2.93-.87,2.61-4.46,1.3-2.28,3,.22s1.74-3.69,9,.76a81.14,81.14,0,0,0,8.36.54l.66-2.17s-1.2-2.61-3.37-1.85A16.3,16.3,0,0,1,39.8,14.71Z"/></svg>