<svg id="Balochistan" xmlns="http://www.w3.org/2000/svg" viewBox="0 0 60 60"><defs><style>.cls-1{fill:#df5e16;stroke:#1e1e1c;stroke-miterlimit:10;}</style></defs><title>punjabArtboard 1</title><path class="cls-1" d="M47.3,9.6,46.17,11l-2.07-.68H43l-.74-.69-1.86,1.75H39.5l.6,1.45-.13.38h-3.8L34.9,14.7l-1.13.76v5.33L33,21.86l-3.14,1.29-1.73.38H24.17l-.67.84H21.7l-1-.54-3.27.54H15.76l-1.86-.61-1.47-.23-3.87-1.9-.33.68,2.07,2.44.86,2.59L13,29.54l2.4,1.3,1.47.38.33,4-.06,2.2,2.13.76-.27,3H16.3l-1.54,1.9L13.1,44.23l-.2,2-1.34,1L11.63,50l.87.53h.93l2.4-1.06,2.6.3,1.67.08L21.17,49l1.73-.23,2.27,1,1.4-.38s2,.08,2.26-.69h2L32.1,49l.93-.38,2,.84-.2,2.28H35.9l1-.91,1.73-3.81.14-2.82-1.4-2.58.2-4.5.93-2.89,1.6-.83,3.07-2.74L47.3,30l.94-1.52.46-1.82.54-1.38V23.15l1.06-2.71.54-1.32V16.6s.93-.83.93-1.06V13.71l-.4-1v-.61L49.82,9.6V8.23l-2.18.61Z"/></svg>