<svg id="GB" xmlns="http://www.w3.org/2000/svg" viewBox="0 0 60 60"><defs><style>.cls-1{fill:#5bb783;stroke:#010101;stroke-miterlimit:10;}</style></defs><title>GB</title><path class="cls-1" d="M20.5,17.93v2.19H14.16l-.9,1.81-1.66,2-2.19.68-.75,4.22,1.05.83,4-.45s.68,3,6,3.55c.08,2.56.08,3.31.08,3.31h2L23,37.09l.9.38s2.26.3,2.64-.46c.38-.52,2.26.53,1.28,1.51.83.53,1.51.91,1.51.91l1.59.9,2.18-.83,1,.83v2l.61.61,2.71.68,2.19-.38,1.58-1.51,3-.53L46.82,41l1-2.11,2-.15,1.43-1.28-2.94-3.7L47.87,32l.23-1-2.19-2.64-1.28,1-3.77-2.26s.83-8.9-4.9-7.54a8.37,8.37,0,0,0-2-2.42H30.53l-1.44-.83-2.41,1.21-3,.45L22,18.46Z"/></svg>