<svg id="Islamabad" xmlns="http://www.w3.org/2000/svg" viewBox="0 0 60 60"><defs><style>.cls-1{fill:#71b62c;stroke:#010101;stroke-miterlimit:10;}</style></defs><title>Islamabad</title><path class="cls-1" d="M15.34,23.52v4.77l-1.71,2.1-2.39.48-2.1,1.62-.57,3.24.48,2.86,2.29,1.63h3.05l.95-1.15.58-2.57,2-.58,2.29-2.48L24,32.59l1.15-.2s5-2.76,5,2.87a21.23,21.23,0,0,0-2.48,3.05l1.14,2.38,3.34,2.48L34,45.46s6.29,3.34,8-5.15a22.36,22.36,0,0,0,2.76-7.15l1-3,3.34-2.58s7.63-3.81-4.77-8.2c-2.58-.76-6.77,0-6.77,0S37,15.51,34,13.89a11.79,11.79,0,0,0-3.63,3.05l-2.76,4.77L18.3,21S15.34,22,15.34,23.52Z"/></svg>