<svg id="KP" xmlns="http://www.w3.org/2000/svg" viewBox="0 0 60 60"><defs><style>.cls-1{fill:#8d1a51;stroke:#010101;stroke-miterlimit:10;}</style></defs><title>KP</title><path class="cls-1" d="M51.12,9.26q.77,3.74-4.42,1.53H43L41.1,12.58l-3.58,1.71-1.43,1.19-.71,1.87,1.07,1.19,1.79.52.24,2-.24,1.45L38,23.91l1.79,1.62.59,1.7L38.6,28.77,39.07,30l-1.07.6.6,2.47-2.27,2,.12,1-1.67-.42-2.27,1.62-1.43.42-2,.34-1.2,2-2.74,2.22V44l-2.86-.77v1.37l-.6.68h-2l-1.55.93v2l1.78.77-1.07.85.12.6h-3l-1.43.76H13.2l-1-.85-1.67-.51V48.52l-1.78-.93.83-2.13.48-1.11,3-.42.71-.86-2-1.27-.24-1.2,2-.08.71-1h2.86l1.19-1.11h2.39l1.19-.17.84-.68-.36-1L21.31,34.3l3.93-2.72.48-.86L25,30.21l.72-1s.24-1.28-2.63-2.3a5.41,5.41,0,0,1,.36-1.53l.6-.77L23.21,23l.48-1.27L22.5,19.57,22,18l-2.38-.93L21,15.65l3.46-2.47,1.78.42L27,12.33,29.29,12,32,10.45l4.89-1.19,2.38.43,2.39-.85L44,9.18l2.51-.34A8.85,8.85,0,0,0,51.12,9.26Z"/></svg>