<svg id="Punjab" xmlns="http://www.w3.org/2000/svg" viewBox="0 0 60 60"><defs><style>.cls-1{fill:#1b638c;stroke:#1e1e1c;stroke-miterlimit:10;}</style></defs><title>punjabArtboard 1</title><path class="cls-1" d="M50.18,20.72l-.94,1.41-2.5.62-1.88,1v4.87l-4,4v1.85l-.94.74-2.4.67s-2,1-1.67,1.84c.11.88-1.15,2.73-1.15,2.73a44.2,44.2,0,0,1-5,3.43,6.37,6.37,0,0,1-1,2.55L26.19,49l-3.65.52-2.39.62L18.69,49l-1-.35-1.36,1-2.51-1.67v-1.4l-1.46-1.15H10.86l-1-.7,1-1,.63-1.32.73-1.05A2.43,2.43,0,0,0,11.91,39l-.21-1,.52-.62.87-.44,1.53-2.55-.73-1s1.56-2.83,2.08-3.09a4.65,4.65,0,0,0-.1-2.2L17,27.67l-.11-.7h2.82l.21-1.06s1.25-3.43,2-3.52a6.57,6.57,0,0,0,.31-1.67l.84-1-.53-1.06-.62-1.58L23.07,16h.62V14.75h1.46L26,14l1.66-1.32.32-1.4h.77l.69-1.06,1.14-.44h1.05l.73.88h.73l1,.62,1.67-.44L37,9.82l.73.44.62,4.13.21,1.76h1.88L43,17.29l2.09.27h.73l-.21,1.32.21.61H48Z"/></svg>