<svg id="Sindh" xmlns="http://www.w3.org/2000/svg" viewBox="0 0 60 60"><defs><style>.cls-1{fill:#e62a2b;stroke:#1e1e1c;stroke-miterlimit:10;}</style></defs><title>Artboard 1</title><path class="cls-1" d="M43,11.23l-1.7,3.27L37,18.62l-.6,2.18v2.3l2.18,1.45,3.15.61s1.81,3.51.48,4.6c-.12.24-.85,2.3-.85,2.3L43,34.36l2.69,1.09h1.18l.85,2.66L49.25,41l1,2.18.85,2.66v3.39l-1.7,1.09H47.31l-1.66-1.45-2.82,1.45-2.78,1.21-3.63-1H30.73l-1.21.13v1.45l-2.06,1.33-2.3.73-2.79,1.57-4.84-.85-2.3-2.54-.73-3.63-.85-1.94V45l-1.93-.6-2.18-.36-.61-.61L11,42l1-.49.36-1.93,3.51-6.06.12-4.6s-3.26-4.48-2.78-6.05c1-1.21.48-4.73.48-4.73l-.12-3.51,1.33-1.69.37-1.7L19.59,9.9l6.17-5.09,12.72-.6.84,1.33.37,2.18Z"/></svg>